<?xml version="1.0" standalone="no"?>
<!DOCTYPE svg PUBLIC "-//W3C//DTD SVG 20010904//EN"
 "http://www.w3.org/TR/2001/REC-SVG-20010904/DTD/svg10.dtd">
<svg version="1.0" xmlns="http://www.w3.org/2000/svg"
 width="512.000000pt" height="512.000000pt" viewBox="0 0 512.000000 512.000000"
 preserveAspectRatio="xMidYMid meet">
<metadata>
Created by potrace 1.11, written by Peter Selinger 2001-2013
</metadata>
<g transform="translate(0.000000,512.000000) scale(0.100000,-0.100000)"
fill="#000000" stroke="none">
<path d="M1330 5112 c-30 -14 -57 -37 -76 -66 -18 -29 -19 -86 -19 -2370 0
-1288 3 -2365 8 -2394 16 -108 84 -199 186 -250 l56 -27 1060 -2 c1185 -3
1111 -7 1208 68 53 41 81 78 109 150 l21 54 1 1640 c0 902 -3 1679 -7 1726
-32 405 -289 745 -687 909 -77 32 -226 75 -295 86 -22 3 -42 7 -45 9 -3 2 -48
7 -100 11 -157 14 -307 10 -474 -11 -245 -31 -544 -168 -710 -325 l-41 -39 -5
372 c-5 405 -5 404 -64 442 -27 18 -103 28 -126 17z m1455 -748 c240 -36 442
-128 585 -266 96 -92 161 -202 202 -345 l23 -78 3 -1680 c3 -1623 2 -1681 -16
-1695 -16 -13 -143 -15 -1024 -15 -841 0 -1008 2 -1022 14 -15 13 -16 136 -16
1670 1 1346 3 1667 14 1714 7 32 14 61 15 65 26 122 100 252 198 348 98 97
256 186 408 230 176 51 442 67 630 38z"/>
<path d="M1854 3789 c-86 -11 -155 -72 -175 -156 -13 -56 -11 -1219 2 -1266
14 -52 71 -112 125 -133 41 -16 108 -17 757 -17 693 0 714 1 757 20 25 11 58
34 73 51 56 59 56 54 56 722 0 575 -1 618 -18 655 -22 49 -60 88 -109 111 -34
16 -89 18 -727 18 -379 1 -713 -2 -741 -5z m1394 -192 c16 -11 18 -1172 1
-1182 -8 -6 -1009 -9 -1331 -6 l-58 1 0 588 c0 358 4 592 10 598 11 11 1359
12 1378 1z"/>
<path d="M2468 2021 c-200 -78 -266 -312 -138 -490 29 -42 117 -96 176 -110
151 -36 309 50 364 196 56 149 -13 319 -158 390 -71 35 -175 41 -244 14z m169
-188 c61 -35 81 -119 42 -174 -58 -82 -170 -75 -212 14 -21 43 -21 58 -3 102
28 65 112 94 173 58z"/>
<path d="M1772 1759 c-48 -24 -74 -68 -75 -125 0 -49 19 -82 67 -118 23 -17
43 -21 131 -22 128 -2 174 15 204 74 37 73 12 156 -58 191 -52 26 -216 26
-269 0z"/>
<path d="M3123 1759 c-71 -35 -99 -139 -55 -198 41 -55 66 -65 170 -67 129 -2
170 14 205 81 18 36 14 106 -9 140 -27 41 -89 63 -184 64 -67 0 -94 -4 -127
-20z"/>
<path d="M1790 1273 c-116 -40 -126 -205 -16 -257 29 -14 65 -17 176 -17 152
1 180 8 219 57 61 78 16 202 -79 221 -60 11 -262 9 -300 -4z"/>
<path d="M2456 1283 c-1 -2 -12 -4 -25 -6 -37 -6 -89 -54 -100 -92 -19 -68 11
-139 71 -168 31 -15 62 -18 178 -18 155 0 182 8 224 64 28 38 28 116 0 154
-42 56 -73 65 -215 67 -72 0 -132 0 -133 -1z"/>
<path d="M3071 1279 c-98 -20 -146 -119 -98 -204 36 -64 69 -75 235 -76 121 0
147 2 174 18 93 54 100 172 14 238 -35 26 -41 27 -165 29 -71 0 -143 -2 -160
-5z"/>
<path d="M1802 749 c-129 -27 -142 -212 -19 -267 40 -17 287 -16 331 2 72 30
105 125 66 194 -37 65 -65 75 -214 77 -72 0 -146 -2 -164 -6z"/>
<path d="M2423 748 c-36 -9 -92 -69 -95 -101 -1 -25 -1 -55 1 -77 2 -22 51
-73 84 -88 18 -8 76 -11 175 -9 134 2 150 4 178 24 85 61 79 185 -11 239 -24
14 -55 18 -165 19 -75 1 -150 -3 -167 -7z"/>
<path d="M3062 749 c-81 -17 -129 -109 -97 -186 35 -82 73 -96 257 -91 161 3
184 12 217 77 34 67 11 149 -52 186 -26 15 -55 19 -162 20 -71 1 -145 -2 -163
-6z"/>
</g>
</svg>
